<?xml version="1.0" standalone="no"?>
<!DOCTYPE svg PUBLIC "-//W3C//DTD SVG 20010904//EN"
 "http://www.w3.org/TR/2001/REC-SVG-20010904/DTD/svg10.dtd">
<svg version="1.0" xmlns="http://www.w3.org/2000/svg"
 width="308.000000pt" height="277.000000pt" viewBox="0 0 308.000000 277.000000"
 preserveAspectRatio="xMidYMid meet">

<g transform="translate(0.000000,277.000000) scale(0.100000,-0.100000)"
fill="#000000" stroke="none">
<path d="M1611 1505 c-10 -12 -31 -74 -31 -89 0 -7 27 -10 80 -9 51 1 80 -2
80 -9 0 -6 -22 -70 -50 -142 -27 -72 -50 -137 -52 -143 -2 -9 30 -13 123 -16
l126 -3 32 91 c18 49 50 140 71 201 22 61 40 115 40 120 0 13 -410 12 -419 -1z"/>
<path d="M1010 1305 l0 -164 59 20 60 20 27 72 c15 40 33 87 41 106 7 19 10
38 6 41 -5 4 -50 21 -100 38 l-93 31 0 -164z"/>
</g>
</svg>
