<svg id="visual" viewBox="0 0 900 450" width="900" height="450" xmlns="http://www.w3.org/2000/svg" xmlns:xlink="http://www.w3.org/1999/xlink" version="1.1"><path d="M0 313L21.5 305.5C43 298 86 283 128.8 274.7C171.7 266.3 214.3 264.7 257.2 273.2C300 281.7 343 300.3 385.8 305.2C428.7 310 471.3 301 514.2 293.2C557 285.3 600 278.7 642.8 278.8C685.7 279 728.3 286 771.2 295.8C814 305.7 857 318.3 878.5 324.7L900 331L900 451L878.5 451C857 451 814 451 771.2 451C728.3 451 685.7 451 642.8 451C600 451 557 451 514.2 451C471.3 451 428.7 451 385.8 451C343 451 300 451 257.2 451C214.3 451 171.7 451 128.8 451C86 451 43 451 21.5 451L0 451Z" fill="#445ba3"></path><path d="M0 357L21.5 348.8C43 340.7 86 324.3 128.8 317.7C171.7 311 214.3 314 257.2 312.8C300 311.7 343 306.3 385.8 306.8C428.7 307.3 471.3 313.7 514.2 322.2C557 330.7 600 341.3 642.8 344.5C685.7 347.7 728.3 343.3 771.2 338.5C814 333.7 857 328.3 878.5 325.7L900 323L900 451L878.5 451C857 451 814 451 771.2 451C728.3 451 685.7 451 642.8 451C600 451 557 451 514.2 451C471.3 451 428.7 451 385.8 451C343 451 300 451 257.2 451C214.3 451 171.7 451 128.8 451C86 451 43 451 21.5 451L0 451Z" fill="#6e52a3"></path><path d="M0 383L21.5 376C43 369 86 355 128.8 349C171.7 343 214.3 345 257.2 348.7C300 352.3 343 357.7 385.8 360.2C428.7 362.7 471.3 362.3 514.2 359.2C557 356 600 350 642.8 348.7C685.7 347.3 728.3 350.7 771.2 354.5C814 358.3 857 362.7 878.5 364.8L900 367L900 451L878.5 451C857 451 814 451 771.2 451C728.3 451 685.7 451 642.8 451C600 451 557 451 514.2 451C471.3 451 428.7 451 385.8 451C343 451 300 451 257.2 451C214.3 451 171.7 451 128.8 451C86 451 43 451 21.5 451L0 451Z" fill="#934598"></path><path d="M0 397L21.5 398.5C43 400 86 403 128.8 402.8C171.7 402.7 214.3 399.3 257.2 392.5C300 385.7 343 375.3 385.8 372.5C428.7 369.7 471.3 374.3 514.2 377.5C557 380.7 600 382.3 642.8 380.2C685.7 378 728.3 372 771.2 369.2C814 366.3 857 366.7 878.5 366.8L900 367L900 451L878.5 451C857 451 814 451 771.2 451C728.3 451 685.7 451 642.8 451C600 451 557 451 514.2 451C471.3 451 428.7 451 385.8 451C343 451 300 451 257.2 451C214.3 451 171.7 451 128.8 451C86 451 43 451 21.5 451L0 451Z" fill="#b13484"></path><path d="M0 397L21.5 401C43 405 86 413 128.8 417.3C171.7 421.7 214.3 422.3 257.2 422.8C300 423.3 343 423.7 385.8 420.8C428.7 418 471.3 412 514.2 410.8C557 409.7 600 413.3 642.8 411.5C685.7 409.7 728.3 402.3 771.2 404C814 405.7 857 416.3 878.5 421.7L900 427L900 451L878.5 451C857 451 814 451 771.2 451C728.3 451 685.7 451 642.8 451C600 451 557 451 514.2 451C471.3 451 428.7 451 385.8 451C343 451 300 451 257.2 451C214.3 451 171.7 451 128.8 451C86 451 43 451 21.5 451L0 451Z" fill="#c62368"></path></svg>